<?xml version="1.0" encoding="UTF-8"?>
<svg xmlns="http://www.w3.org/2000/svg" xmlns:xlink="http://www.w3.org/1999/xlink" width="30pt" height="30pt" viewBox="0 0 30 30" version="1.1">
<g id="surface6497412">
<path style=" stroke:none;fill-rule:nonzero;fill:rgb(18.039216%,80.000001%,34.509805%);fill-opacity:1;" d="M 15 30 C 6.714844 30 0 23.285156 0 15 C 0 6.714844 6.714844 0 15 0 C 23.285156 0 30 6.714844 30 15 C 30 23.285156 23.285156 30 15 30 Z M 15 30 "/>
<path style=" stroke:none;fill-rule:nonzero;fill:rgb(54.509807%,71.764708%,94.117647%);fill-opacity:1;" d="M 17.03125 15 C 17.03125 16.121094 16.121094 17.03125 15 17.03125 C 13.878906 17.03125 12.96875 16.121094 12.96875 15 C 12.96875 13.878906 13.878906 12.96875 15 12.96875 C 16.121094 12.96875 17.03125 13.878906 17.03125 15 Z M 17.03125 15 "/>
<path style=" stroke:none;fill-rule:nonzero;fill:rgb(30.588236%,47.843137%,70.980394%);fill-opacity:1;" d="M 15 17.1875 C 13.792969 17.1875 12.8125 16.207031 12.8125 15 C 12.8125 13.792969 13.792969 12.8125 15 12.8125 C 16.207031 12.8125 17.1875 13.792969 17.1875 15 C 17.1875 16.207031 16.207031 17.1875 15 17.1875 Z M 15 13.125 C 13.964844 13.125 13.125 13.964844 13.125 15 C 13.125 16.035156 13.964844 16.875 15 16.875 C 16.035156 16.875 16.875 16.035156 16.875 15 C 16.875 13.964844 16.035156 13.125 15 13.125 Z M 15 13.125 "/>
<path style=" stroke:none;fill-rule:nonzero;fill:rgb(54.509807%,71.764708%,94.117647%);fill-opacity:1;" d="M 10.148438 26.09375 C 9.613281 26.09375 9.125 25.972656 8.699219 25.730469 C 7.988281 25.328125 7.496094 24.628906 7.238281 23.660156 C 6.933594 22.535156 6.972656 21.039062 7.339844 19.324219 C 4.363281 18.300781 2.65625 16.726562 2.65625 15 C 2.65625 13.269531 4.359375 11.699219 7.339844 10.675781 C 6.96875 8.960938 6.933594 7.464844 7.234375 6.339844 C 7.496094 5.371094 7.988281 4.671875 8.699219 4.269531 C 9.125 4.027344 9.613281 3.90625 10.148438 3.90625 C 11.519531 3.90625 13.238281 4.757812 15 6.3125 C 16.761719 4.761719 18.480469 3.90625 19.851562 3.90625 C 20.386719 3.90625 20.875 4.03125 21.300781 4.269531 C 22.011719 4.675781 22.503906 5.371094 22.761719 6.335938 C 23.066406 7.464844 23.027344 8.960938 22.660156 10.675781 C 25.636719 11.699219 27.34375 13.269531 27.34375 15 C 27.34375 16.730469 25.636719 18.300781 22.660156 19.324219 C 23.027344 21.039062 23.066406 22.535156 22.761719 23.664062 C 22.503906 24.628906 22.011719 25.324219 21.300781 25.730469 C 20.875 25.96875 20.386719 26.09375 19.851562 26.09375 C 18.480469 26.09375 16.761719 25.238281 15 23.691406 C 13.238281 25.242188 11.519531 26.09375 10.148438 26.09375 Z M 8.542969 19.6875 C 8.234375 21.164062 8.199219 22.421875 8.445312 23.339844 C 8.613281 23.972656 8.90625 24.410156 9.316406 24.644531 C 9.550781 24.777344 9.832031 24.84375 10.148438 24.84375 C 11.207031 24.84375 12.605469 24.132812 14.09375 22.832031 C 13.347656 22.082031 12.621094 21.234375 11.925781 20.304688 C 10.730469 20.175781 9.59375 19.96875 8.542969 19.6875 Z M 15.90625 22.832031 C 17.394531 24.128906 18.792969 24.84375 19.851562 24.84375 C 20.167969 24.84375 20.449219 24.773438 20.683594 24.640625 C 21.09375 24.410156 21.386719 23.972656 21.554688 23.339844 C 21.800781 22.421875 21.765625 21.164062 21.457031 19.691406 C 20.40625 19.96875 19.269531 20.175781 18.070312 20.304688 C 17.378906 21.234375 16.652344 22.082031 15.90625 22.832031 Z M 13.613281 20.433594 C 14.066406 20.988281 14.53125 21.507812 15 21.980469 C 15.464844 21.507812 15.929688 20.992188 16.382812 20.433594 C 15.917969 20.457031 15.453125 20.46875 15 20.46875 C 14.546875 20.46875 14.082031 20.457031 13.613281 20.433594 Z M 12.609375 19.117188 C 13.390625 19.183594 14.191406 19.21875 15 19.21875 C 15.808594 19.21875 16.609375 19.183594 17.390625 19.117188 C 17.855469 18.46875 18.296875 17.785156 18.707031 17.089844 C 19.101562 16.414062 19.476562 15.710938 19.816406 15 C 19.476562 14.289062 19.105469 13.585938 18.707031 12.910156 C 18.296875 12.214844 17.855469 11.535156 17.390625 10.882812 C 16.613281 10.816406 15.808594 10.78125 15 10.78125 C 14.191406 10.78125 13.386719 10.816406 12.609375 10.882812 C 12.144531 11.535156 11.703125 12.214844 11.292969 12.910156 C 10.894531 13.585938 10.523438 14.289062 10.183594 15 C 10.523438 15.710938 10.894531 16.414062 11.292969 17.089844 C 11.699219 17.78125 12.140625 18.464844 12.609375 19.117188 Z M 20.464844 16.492188 C 20.246094 16.914062 20.015625 17.328125 19.78125 17.722656 C 19.546875 18.125 19.296875 18.523438 19.039062 18.921875 C 19.777344 18.808594 20.488281 18.660156 21.152344 18.484375 C 20.96875 17.84375 20.738281 17.175781 20.464844 16.492188 Z M 8.84375 18.484375 C 9.511719 18.660156 10.21875 18.808594 10.960938 18.921875 C 10.699219 18.523438 10.449219 18.121094 10.214844 17.722656 C 9.980469 17.328125 9.753906 16.914062 9.53125 16.496094 C 9.261719 17.171875 9.03125 17.839844 8.84375 18.484375 Z M 21.191406 15 C 21.667969 16.058594 22.058594 17.105469 22.351562 18.117188 C 24.664062 17.304688 26.09375 16.117188 26.09375 15 C 26.09375 13.882812 24.664062 12.695312 22.351562 11.882812 C 22.058594 12.894531 21.671875 13.941406 21.191406 15 Z M 7.648438 11.882812 C 5.335938 12.695312 3.90625 13.882812 3.90625 15 C 3.90625 16.117188 5.335938 17.304688 7.648438 18.117188 C 7.941406 17.105469 8.328125 16.058594 8.804688 15 C 8.328125 13.941406 7.941406 12.894531 7.648438 11.882812 Z M 8.84375 11.515625 C 9.03125 12.15625 9.261719 12.824219 9.53125 13.507812 C 9.753906 13.085938 9.980469 12.675781 10.214844 12.277344 C 10.449219 11.878906 10.699219 11.476562 10.960938 11.078125 C 10.21875 11.191406 9.511719 11.339844 8.84375 11.515625 Z M 19.039062 11.078125 C 19.300781 11.476562 19.550781 11.878906 19.785156 12.277344 C 20.015625 12.671875 20.246094 13.085938 20.464844 13.507812 C 20.738281 12.824219 20.96875 12.160156 21.152344 11.515625 C 20.488281 11.339844 19.777344 11.191406 19.039062 11.078125 Z M 10.148438 5.15625 C 9.832031 5.15625 9.550781 5.222656 9.316406 5.355469 C 8.90625 5.589844 8.613281 6.027344 8.445312 6.660156 C 8.199219 7.578125 8.234375 8.835938 8.542969 10.3125 C 9.59375 10.03125 10.730469 9.824219 11.929688 9.695312 C 12.621094 8.765625 13.347656 7.917969 14.09375 7.167969 C 12.605469 5.867188 11.207031 5.15625 10.148438 5.15625 Z M 18.070312 9.695312 C 19.269531 9.824219 20.40625 10.03125 21.457031 10.308594 C 21.765625 8.835938 21.800781 7.578125 21.554688 6.660156 C 21.386719 6.027344 21.09375 5.589844 20.683594 5.359375 C 20.449219 5.226562 20.167969 5.15625 19.851562 5.15625 C 18.792969 5.15625 17.394531 5.871094 15.910156 7.167969 C 16.652344 7.917969 17.378906 8.765625 18.070312 9.695312 Z M 15 9.53125 C 15.453125 9.53125 15.917969 9.542969 16.382812 9.566406 C 15.929688 9.011719 15.46875 8.492188 15 8.023438 C 14.53125 8.492188 14.070312 9.011719 13.617188 9.566406 C 14.082031 9.542969 14.546875 9.53125 15 9.53125 Z M 15 9.53125 "/>
<path style=" stroke:none;fill-rule:nonzero;fill:rgb(30.588236%,47.843137%,70.980394%);fill-opacity:1;" d="M 10.148438 4.0625 C 11.550781 4.0625 13.269531 4.972656 15 6.519531 C 16.730469 4.972656 18.449219 4.0625 19.851562 4.0625 C 20.359375 4.0625 20.820312 4.179688 21.222656 4.40625 C 21.894531 4.789062 22.363281 5.453125 22.613281 6.378906 C 22.949219 7.601562 22.878906 9.109375 22.476562 10.777344 C 25.359375 11.742188 27.1875 13.257812 27.1875 15 C 27.1875 16.742188 25.359375 18.257812 22.476562 19.222656 C 22.894531 21.027344 22.964844 22.574219 22.613281 23.621094 C 22.363281 24.546875 21.894531 25.210938 21.222656 25.59375 C 20.820312 25.820312 20.453125 25.9375 19.949219 25.9375 C 19.949219 25.9375 19.816406 25.9375 19.816406 25.9375 C 18.414062 25.9375 16.730469 25.027344 15 23.480469 C 13.269531 25.03125 11.550781 25.9375 10.148438 25.9375 C 9.640625 25.9375 9.179688 25.824219 8.777344 25.59375 C 8.101562 25.210938 7.636719 24.546875 7.386719 23.621094 C 7.015625 22.460938 7.089844 20.933594 7.523438 19.222656 C 4.640625 18.257812 2.8125 16.742188 2.8125 15 C 2.8125 13.261719 4.640625 11.742188 7.523438 10.777344 C 7.308594 9.820312 7.171875 8.933594 7.167969 8.125 C 7.164062 7.484375 7.25 6.890625 7.386719 6.378906 C 7.636719 5.453125 8.101562 4.789062 8.777344 4.40625 C 9.179688 4.175781 9.640625 4.0625 10.148438 4.0625 M 8.425781 10.503906 C 9.511719 10.207031 10.71875 9.980469 12.011719 9.84375 C 12.757812 8.839844 13.535156 7.9375 14.320312 7.160156 C 12.796875 5.800781 11.316406 5 10.148438 5 C 9.804688 5 9.5 5.074219 9.238281 5.21875 C 8.792969 5.472656 8.472656 5.945312 8.292969 6.621094 C 8.023438 7.621094 8.085938 8.972656 8.425781 10.503906 M 21.574219 10.503906 C 21.914062 8.972656 21.972656 7.621094 21.707031 6.621094 C 21.527344 5.945312 21.207031 5.476562 20.761719 5.222656 C 20.5 5.074219 20.195312 5 19.851562 5 C 18.683594 5 17.203125 5.804688 15.679688 7.160156 C 16.464844 7.9375 17.242188 8.839844 17.988281 9.84375 C 19.28125 9.980469 20.488281 10.207031 21.574219 10.503906 M 13.273438 9.738281 C 13.835938 9.707031 14.402344 9.675781 14.988281 9.675781 C 15.578125 9.675781 16.164062 9.707031 16.726562 9.738281 C 16.160156 9.027344 15.582031 8.375 15 7.800781 C 14.421875 8.375 13.839844 9.027344 13.273438 9.738281 M 15 19.375 C 15.863281 19.375 16.6875 19.335938 17.472656 19.269531 C 17.949219 18.605469 18.40625 17.902344 18.839844 17.167969 C 19.261719 16.449219 19.644531 15.722656 19.988281 15 C 19.644531 14.277344 19.261719 13.550781 18.839844 12.832031 C 18.40625 12.097656 17.949219 11.394531 17.472656 10.734375 C 16.6875 10.664062 15.863281 10.625 15 10.625 C 14.136719 10.625 13.3125 10.664062 12.523438 10.730469 C 12.050781 11.394531 11.589844 12.097656 11.15625 12.832031 C 10.734375 13.550781 10.351562 14.277344 10.011719 15 C 10.351562 15.722656 10.734375 16.449219 11.15625 17.167969 C 11.589844 17.902344 12.050781 18.605469 12.523438 19.269531 C 13.308594 19.335938 14.136719 19.375 15 19.375 M 20.484375 13.878906 C 20.835938 13.03125 21.125 12.203125 21.347656 11.40625 C 20.550781 11.1875 19.667969 11.003906 18.714844 10.871094 C 19.035156 11.351562 19.347656 11.84375 19.648438 12.355469 C 19.945312 12.863281 20.222656 13.371094 20.484375 13.878906 M 9.515625 13.878906 C 9.773438 13.371094 10.050781 12.863281 10.347656 12.355469 C 10.648438 11.84375 10.964844 11.351562 11.285156 10.875 C 10.332031 11.003906 9.449219 11.1875 8.652344 11.40625 C 8.875 12.203125 9.164062 13.03125 9.515625 13.878906 M 22.246094 18.320312 C 24.769531 17.464844 26.25 16.207031 26.25 15 C 26.25 13.792969 24.769531 12.535156 22.246094 11.679688 C 21.949219 12.746094 21.535156 13.863281 21.019531 15 C 21.535156 16.136719 21.949219 17.253906 22.246094 18.320312 M 7.753906 18.320312 C 8.050781 17.253906 8.460938 16.136719 8.976562 15 C 8.460938 13.863281 8.050781 12.746094 7.753906 11.679688 C 5.230469 12.535156 3.75 13.792969 3.75 15 C 3.75 16.207031 5.230469 17.464844 7.753906 18.320312 M 18.714844 19.128906 C 19.667969 18.996094 20.550781 18.8125 21.347656 18.59375 C 21.125 17.796875 20.835938 16.96875 20.484375 16.121094 C 20.222656 16.628906 19.945312 17.136719 19.648438 17.644531 C 19.347656 18.15625 19.035156 18.648438 18.714844 19.128906 M 11.285156 19.125 C 10.960938 18.648438 10.648438 18.15625 10.347656 17.644531 C 10.050781 17.136719 9.773438 16.628906 9.515625 16.121094 C 9.164062 16.96875 8.875 17.800781 8.652344 18.59375 C 9.449219 18.8125 10.328125 18.992188 11.285156 19.125 M 10.148438 25 C 11.316406 25 12.796875 24.199219 14.320312 22.839844 C 13.535156 22.0625 12.757812 21.160156 12.011719 20.15625 C 10.71875 20.019531 9.511719 19.792969 8.425781 19.496094 C 8.085938 21.027344 8.027344 22.378906 8.292969 23.378906 C 8.472656 24.054688 8.792969 24.523438 9.238281 24.777344 C 9.5 24.925781 9.804688 25 10.148438 25 M 19.851562 25 C 20.195312 25 20.5 24.925781 20.761719 24.777344 C 21.207031 24.523438 21.523438 24.054688 21.707031 23.378906 C 21.972656 22.378906 21.914062 21.027344 21.574219 19.496094 C 20.488281 19.792969 19.28125 20.019531 17.984375 20.15625 C 17.242188 21.160156 16.464844 22.0625 15.679688 22.839844 C 17.203125 24.195312 18.683594 25 19.851562 25 M 15 22.199219 C 15.582031 21.625 16.160156 20.972656 16.726562 20.261719 C 16.164062 20.292969 15.613281 20.363281 15.027344 20.363281 C 14.4375 20.363281 13.835938 20.292969 13.273438 20.261719 C 13.839844 20.972656 14.417969 21.625 15 22.199219 M 10.035156 3.773438 C 9.472656 3.773438 9.074219 3.878906 8.621094 4.132812 C 7.875 4.558594 7.355469 5.285156 7.085938 6.296875 C 6.785156 7.417969 6.8125 8.890625 7.160156 10.574219 C 4.195312 11.621094 2.5 13.226562 2.5 15 C 2.5 16.773438 4.195312 18.378906 7.160156 19.425781 C 6.8125 21.109375 6.785156 22.582031 7.085938 23.703125 C 7.355469 24.714844 7.875 25.441406 8.625 25.867188 C 9.074219 26.121094 9.613281 26.230469 10.175781 26.230469 C 11.578125 26.230469 13.222656 25.4375 15 23.898438 C 16.777344 25.4375 18.449219 26.25 19.851562 26.25 C 20.414062 26.25 20.925781 26.121094 21.378906 25.863281 C 22.125 25.441406 22.644531 24.714844 22.914062 23.703125 C 23.214844 22.582031 23.1875 21.109375 22.839844 19.429688 C 25.804688 18.378906 27.5 16.773438 27.5 15 C 27.5 13.226562 25.804688 11.621094 22.839844 10.570312 C 23.1875 8.890625 23.214844 7.417969 22.914062 6.296875 C 22.644531 5.285156 22.125 4.558594 21.375 4.136719 C 20.925781 3.878906 20.414062 3.75 19.851562 3.75 C 18.449219 3.75 16.777344 4.5625 15 6.101562 C 13.222656 4.5625 11.542969 3.773438 10.140625 3.773438 Z M 8.664062 10.117188 C 8.519531 9.390625 8.421875 8.710938 8.417969 8.113281 C 8.410156 7.578125 8.484375 7.109375 8.59375 6.703125 C 8.753906 6.109375 9.023438 5.703125 9.394531 5.492188 C 9.605469 5.371094 9.863281 5.289062 10.152344 5.289062 C 11.144531 5.289062 12.453125 5.972656 13.863281 7.175781 C 13.171875 7.886719 12.492188 8.683594 11.84375 9.546875 C 10.722656 9.671875 9.65625 9.863281 8.664062 10.117188 Z M 16.136719 7.175781 C 17.546875 5.972656 18.859375 5.3125 19.851562 5.3125 C 20.140625 5.3125 20.394531 5.375 20.605469 5.496094 C 20.976562 5.707031 21.246094 6.109375 21.40625 6.699219 C 21.675781 7.582031 21.640625 8.753906 21.335938 10.117188 C 20.34375 9.863281 19.277344 9.671875 18.15625 9.546875 C 17.507812 8.683594 16.832031 7.886719 16.136719 7.175781 Z M 13.960938 9.394531 C 14.304688 8.988281 14.652344 8.601562 15 8.246094 C 15.351562 8.601562 15.699219 8.988281 16.039062 9.394531 C 15.691406 9.382812 15.34375 9.375 15 9.375 C 14.65625 9.375 14.308594 9.382812 13.960938 9.394531 Z M 12.695312 11.03125 C 13.445312 10.96875 14.222656 10.925781 15 10.925781 C 15.777344 10.925781 16.554688 10.96875 17.304688 11.03125 C 17.75 11.664062 18.179688 12.320312 18.570312 12.992188 C 18.953125 13.640625 19.3125 14.316406 19.640625 15 C 19.3125 15.683594 18.953125 16.359375 18.570312 17.007812 C 18.175781 17.679688 17.75 18.335938 17.304688 18.96875 C 16.554688 19.03125 15.777344 19.113281 15 19.113281 C 14.222656 19.113281 13.445312 19.03125 12.695312 18.96875 C 12.246094 18.335938 11.820312 17.679688 11.425781 17.007812 C 11.042969 16.359375 10.683594 15.683594 10.355469 15 C 10.683594 14.316406 11.042969 13.640625 11.425781 12.988281 C 11.820312 12.320312 12.246094 11.660156 12.695312 11.03125 Z M 20.445312 13.132812 C 20.273438 12.8125 20.097656 12.5 19.917969 12.199219 C 19.742188 11.894531 19.554688 11.589844 19.359375 11.289062 C 19.914062 11.382812 20.449219 11.496094 20.957031 11.625 C 20.8125 12.117188 20.640625 12.621094 20.445312 13.132812 Z M 9.039062 11.625 C 9.550781 11.496094 10.082031 11.382812 10.636719 11.289062 C 10.445312 11.589844 10.257812 11.894531 10.082031 12.199219 C 9.902344 12.5 9.726562 12.8125 9.554688 13.132812 C 9.359375 12.621094 9.1875 12.117188 9.039062 11.625 Z M 21.363281 15 C 21.804688 14.011719 22.171875 13.035156 22.453125 12.085938 C 24.613281 12.871094 25.9375 13.976562 25.9375 15 C 25.9375 16.023438 24.613281 17.128906 22.453125 17.914062 C 22.171875 16.964844 21.804688 15.988281 21.363281 15 Z M 7.542969 17.914062 C 5.386719 17.128906 4.0625 16.023438 4.0625 15 C 4.0625 13.976562 5.386719 12.871094 7.542969 12.085938 C 7.828125 13.035156 8.191406 14.011719 8.632812 15 C 8.191406 15.988281 7.828125 16.964844 7.542969 17.914062 Z M 19.359375 18.710938 C 19.554688 18.410156 19.738281 18.105469 19.917969 17.800781 C 20.097656 17.5 20.273438 17.1875 20.445312 16.867188 C 20.640625 17.378906 20.8125 17.882812 20.957031 18.375 C 20.449219 18.503906 19.914062 18.617188 19.359375 18.710938 Z M 9.039062 18.375 C 9.1875 17.882812 9.359375 17.378906 9.554688 16.867188 C 9.726562 17.1875 9.902344 17.5 10.078125 17.800781 C 10.257812 18.105469 10.445312 18.410156 10.636719 18.710938 C 10.082031 18.617188 9.550781 18.503906 9.039062 18.375 Z M 10.148438 24.6875 C 9.859375 24.6875 9.605469 24.628906 9.394531 24.507812 C 9.023438 24.296875 8.753906 23.890625 8.59375 23.296875 C 8.335938 22.410156 8.363281 21.238281 8.664062 19.882812 C 9.65625 20.136719 10.722656 20.328125 11.84375 20.453125 C 12.492188 21.316406 13.167969 22.113281 13.863281 22.824219 C 12.453125 24.027344 11.140625 24.6875 10.148438 24.6875 Z M 18.15625 20.453125 C 19.277344 20.328125 20.34375 20.136719 21.335938 19.882812 C 21.679688 21.363281 21.707031 22.542969 21.402344 23.296875 C 21.246094 23.890625 20.976562 24.292969 20.605469 24.503906 C 20.394531 24.625 20.140625 24.6875 19.851562 24.6875 L 19.851562 25 L 19.851562 24.6875 C 18.859375 24.6875 17.546875 24.027344 16.136719 22.824219 C 16.828125 22.113281 17.507812 21.316406 18.15625 20.453125 Z M 15 21.757812 C 14.648438 21.398438 14.300781 21.011719 13.960938 20.605469 C 14.308594 20.617188 14.65625 20.625 15 20.625 C 15.34375 20.625 15.691406 20.617188 16.039062 20.605469 C 15.699219 21.011719 15.351562 21.398438 15 21.757812 Z M 15 21.757812 "/>
</g>
</svg>
