<?xml version="1.0" encoding="UTF-8"?>
<svg xmlns="http://www.w3.org/2000/svg" xmlns:xlink="http://www.w3.org/1999/xlink" width="96pt" height="96pt" viewBox="0 0 96 96" version="1.1">
<g id="surface6519959">
<path style=" stroke:none;fill-rule:nonzero;fill:rgb(94.509804%,76.862746%,100%);fill-opacity:1;" d="M 48 96 C 21.492188 96 0 74.507812 0 48 C 0 21.492188 21.492188 0 48 0 C 74.507812 0 96 21.492188 96 48 C 96 74.507812 74.507812 96 48 96 Z M 48 96 "/>
<path style=" stroke:none;fill-rule:nonzero;fill:rgb(0.784314%,46.666667%,74.117649%);fill-opacity:1;" d="M 75.199219 17.601562 L 20.800781 17.601562 L 25.601562 72 L 48 78.398438 L 70.398438 72 Z M 75.199219 17.601562 "/>
<path style=" stroke:none;fill-rule:nonzero;fill:rgb(1.176471%,60.784316%,89.803922%);fill-opacity:1;" d="M 48 22.398438 L 48 73.441406 L 65.921875 68.320312 L 69.921875 22.398438 Z M 48 22.398438 "/>
<path style=" stroke:none;fill-rule:nonzero;fill:rgb(100%,100%,100%);fill-opacity:1;" d="M 62.558594 30.398438 L 48 30.398438 L 48 36.800781 L 55.839844 36.800781 L 55.359375 43.199219 L 48 43.199219 L 48 49.601562 L 55.039062 49.601562 L 54.558594 56.800781 L 48 59.039062 L 48 65.761719 L 60.640625 61.601562 L 61.761719 43.199219 Z M 62.558594 30.398438 "/>
<path style=" stroke:none;fill-rule:nonzero;fill:rgb(93.333334%,93.333334%,93.333334%);fill-opacity:1;" d="M 48 30.398438 L 48 36.800781 L 33.761719 36.800781 L 33.28125 30.398438 Z M 40.640625 43.199219 L 40.960938 49.601562 L 48 49.601562 L 48 43.199219 Z M 41.28125 52.800781 L 34.878906 52.800781 L 35.359375 61.601562 L 48 65.761719 L 48 59.039062 L 41.441406 56.800781 Z M 41.28125 52.800781 "/>
</g>
</svg>
