<?xml version="1.0" encoding="UTF-8"?>
<svg xmlns="http://www.w3.org/2000/svg" xmlns:xlink="http://www.w3.org/1999/xlink" width="96pt" height="96pt" viewBox="0 0 96 96" version="1.1">
<g id="surface314467">
<path style=" stroke:none;fill-rule:nonzero;fill:rgb(68.627453%,34.901962%,71.372551%);fill-opacity:1;" d="M 48 96 C 21.492188 96 0 74.507812 0 48 C 0 21.492188 21.492188 0 48 0 C 74.507812 0 96 21.492188 96 48 C 96 74.507812 74.507812 96 48 96 Z M 48 96 "/>
<path style=" stroke:none;fill-rule:nonzero;fill:rgb(100%,83.92157%,0%);fill-opacity:1;" d="M 19.199219 76.800781 L 19.199219 19.199219 L 76.800781 19.199219 L 76.800781 76.800781 Z M 19.199219 76.800781 "/>
<path style=" stroke:none;fill-rule:nonzero;fill:rgb(0%,0%,0.392157%);fill-opacity:1;" d="M 56.859375 62.316406 C 57.96875 64.113281 59.171875 65.835938 61.71875 65.835938 C 63.859375 65.835938 64.984375 64.773438 64.984375 63.300781 C 64.984375 61.539062 63.824219 60.914062 61.46875 59.886719 L 60.175781 59.335938 C 56.449219 57.757812 53.972656 55.777344 53.972656 51.59375 C 53.972656 47.734375 56.921875 44.800781 61.535156 44.800781 C 64.820312 44.800781 67.179688 45.9375 68.882812 48.917969 L 64.859375 51.488281 C 63.976562 49.910156 63.019531 49.285156 61.535156 49.285156 C 60.023438 49.285156 59.0625 50.242188 59.0625 51.488281 C 59.0625 53.03125 60.023438 53.65625 62.238281 54.609375 L 63.53125 55.160156 C 67.921875 57.03125 70.398438 58.941406 70.398438 63.238281 C 70.398438 67.863281 66.746094 70.398438 61.839844 70.398438 C 57.042969 70.398438 54.316406 67.992188 52.800781 65.011719 Z M 38.324219 62.445312 C 39.132812 63.894531 40.363281 65.011719 42.132812 65.011719 C 43.824219 65.011719 44.800781 64.34375 44.800781 61.742188 L 44.800781 44.800781 L 50.132812 44.800781 L 50.132812 62.5625 C 50.132812 67.949219 47.007812 70.398438 42.445312 70.398438 C 38.320312 70.398438 35.34375 67.605469 34.132812 65.011719 Z M 38.324219 62.445312 "/>
</g>
</svg>
