<?xml version="1.0" encoding="UTF-8"?>
<svg xmlns="http://www.w3.org/2000/svg" xmlns:xlink="http://www.w3.org/1999/xlink" width="96pt" height="96pt" viewBox="0 0 96 96" version="1.1">
<g id="surface6527376">
<path style=" stroke:none;fill-rule:nonzero;fill:rgb(94.509804%,76.862746%,5.882353%);fill-opacity:1;" d="M 48 96 C 21.492188 96 0 74.507812 0 48 C 0 21.492188 21.492188 0 48 0 C 74.507812 0 96 21.492188 96 48 C 96 74.507812 74.507812 96 48 96 Z M 48 96 "/>
<path style=" stroke:none;fill-rule:nonzero;fill:rgb(21.960784%,55.686277%,23.529412%);fill-opacity:1;" d="M 38.859375 39.816406 L 32.261719 43.46875 C 32.015625 43.605469 31.863281 43.855469 31.863281 44.128906 L 31.863281 51.4375 C 31.863281 51.710938 32.015625 51.960938 32.261719 52.097656 L 38.863281 55.75 C 39.109375 55.886719 39.414062 55.886719 39.660156 55.75 L 46.257812 52.097656 C 46.503906 51.960938 46.65625 51.710938 46.65625 51.4375 L 46.65625 44.128906 C 46.65625 43.855469 46.503906 43.605469 46.253906 43.46875 L 39.660156 39.816406 C 39.535156 39.75 39.394531 39.714844 39.257812 39.714844 C 39.121094 39.714844 38.984375 39.75 38.859375 39.816406 M 72.8125 46.394531 L 71.710938 47.003906 C 71.671875 47.027344 71.644531 47.066406 71.644531 47.113281 L 71.644531 48.332031 C 71.644531 48.378906 71.671875 48.417969 71.710938 48.441406 L 72.8125 49.050781 C 72.855469 49.074219 72.902344 49.074219 72.945312 49.050781 L 74.046875 48.441406 C 74.085938 48.417969 74.109375 48.378906 74.109375 48.332031 L 74.109375 47.113281 C 74.109375 47.066406 74.085938 47.027344 74.042969 47.003906 L 72.945312 46.394531 C 72.921875 46.382812 72.902344 46.378906 72.878906 46.378906 C 72.855469 46.378906 72.832031 46.382812 72.8125 46.394531 "/>
<path style=" stroke:none;fill-rule:nonzero;fill:rgb(21.568628%,27.843139%,30.980393%);fill-opacity:1;" d="M 63.800781 32.074219 L 60.589844 30.28125 C 60.488281 30.226562 60.363281 30.226562 60.265625 30.285156 C 60.167969 30.34375 60.105469 30.453125 60.105469 30.566406 L 60.101562 41.394531 L 57.140625 39.753906 C 57.015625 39.6875 56.878906 39.652344 56.742188 39.652344 C 56.605469 39.652344 56.464844 39.6875 56.339844 39.753906 L 56.34375 39.753906 L 49.746094 43.40625 C 49.496094 43.542969 49.34375 43.796875 49.34375 44.066406 L 49.34375 51.375 C 49.34375 51.644531 49.496094 51.898438 49.746094 52.035156 L 56.34375 55.6875 C 56.589844 55.824219 56.894531 55.824219 57.140625 55.6875 L 63.742188 52.035156 C 63.984375 51.898438 64.136719 51.644531 64.136719 51.375 L 64.136719 32.644531 C 64.136719 32.40625 64.007812 32.191406 63.800781 32.074219 Z M 59.921875 49.683594 L 56.925781 51.34375 C 56.8125 51.40625 56.671875 51.40625 56.5625 51.34375 L 53.5625 49.683594 C 53.449219 49.621094 53.378906 49.503906 53.378906 49.382812 L 53.378906 46.058594 C 53.378906 45.9375 53.449219 45.820312 53.5625 45.757812 L 56.5625 44.097656 L 56.558594 44.097656 C 56.617188 44.066406 56.679688 44.054688 56.742188 44.054688 C 56.804688 44.054688 56.867188 44.070312 56.921875 44.097656 L 59.921875 45.757812 C 60.035156 45.820312 60.101562 45.9375 60.101562 46.0625 L 60.101562 49.382812 C 60.101562 49.503906 60.035156 49.621094 59.921875 49.683594 Z M 59.921875 49.683594 "/>
<path style=" stroke:none;fill-rule:nonzero;fill:rgb(18.039216%,49.019608%,19.607843%);fill-opacity:1;" d="M 38.859375 39.816406 L 31.863281 51.4375 C 31.863281 51.710938 32.015625 51.960938 32.261719 52.097656 L 38.863281 55.75 C 39.109375 55.886719 39.414062 55.886719 39.660156 55.75 L 46.65625 44.128906 C 46.65625 43.855469 46.503906 43.605469 46.253906 43.46875 L 39.660156 39.816406 C 39.535156 39.75 39.394531 39.714844 39.257812 39.714844 C 39.121094 39.714844 38.984375 39.75 38.859375 39.816406 "/>
<path style=" stroke:none;fill-rule:nonzero;fill:rgb(29.803923%,68.627453%,31.37255%);fill-opacity:1;" d="M 38.859375 39.816406 L 32.261719 43.46875 C 32.015625 43.605469 31.863281 43.855469 31.863281 44.128906 L 38.859375 55.75 C 39.105469 55.886719 39.414062 55.886719 39.660156 55.75 L 46.257812 52.097656 C 46.503906 51.960938 46.65625 51.710938 46.65625 51.4375 L 39.660156 39.816406 C 39.535156 39.75 39.394531 39.714844 39.257812 39.714844 C 39.121094 39.714844 38.984375 39.75 38.859375 39.816406 "/>
<path style=" stroke:none;fill-rule:nonzero;fill:rgb(21.568628%,27.843139%,30.980393%);fill-opacity:1;" d="M 79.875 43.40625 L 73.277344 39.753906 C 73.152344 39.6875 73.015625 39.652344 72.878906 39.652344 C 72.742188 39.652344 72.601562 39.6875 72.480469 39.753906 L 65.882812 43.40625 C 65.636719 43.542969 65.480469 43.800781 65.480469 44.082031 L 65.480469 51.359375 C 65.480469 51.640625 65.636719 51.898438 65.882812 52.035156 L 72.480469 55.691406 C 72.730469 55.828125 73.03125 55.828125 73.277344 55.691406 L 76.320312 54.003906 C 76.601562 53.851562 76.597656 53.449219 76.320312 53.296875 L 69.699219 49.683594 C 69.585938 49.621094 69.515625 49.503906 69.515625 49.378906 L 69.515625 46.0625 C 69.515625 45.9375 69.582031 45.824219 69.691406 45.765625 L 72.695312 44.101562 C 72.75 44.070312 72.8125 44.054688 72.875 44.054688 C 72.941406 44.054688 73 44.074219 73.058594 44.101562 L 76.0625 45.765625 C 76.171875 45.824219 76.238281 45.9375 76.238281 46.0625 L 76.238281 48.769531 C 76.238281 48.882812 76.300781 48.992188 76.402344 49.050781 C 76.503906 49.105469 76.625 49.105469 76.726562 49.046875 L 79.953125 47.175781 C 80.152344 47.058594 80.273438 46.84375 80.273438 46.613281 L 80.273438 44.085938 C 80.273438 43.800781 80.121094 43.542969 79.875 43.40625 Z M 30.117188 43.40625 L 23.519531 39.753906 C 23.398438 39.6875 23.257812 39.652344 23.121094 39.652344 C 22.984375 39.652344 22.847656 39.6875 22.722656 39.753906 L 16.125 43.40625 C 15.878906 43.542969 15.726562 43.800781 15.726562 44.082031 L 15.726562 54.121094 C 15.726562 54.238281 15.789062 54.34375 15.886719 54.402344 C 15.988281 54.460938 16.113281 54.460938 16.214844 54.402344 L 19.4375 52.527344 C 19.636719 52.414062 19.761719 52.199219 19.761719 51.96875 L 19.761719 46.058594 C 19.761719 45.9375 19.828125 45.820312 19.933594 45.761719 L 22.941406 44.101562 C 22.996094 44.070312 23.058594 44.054688 23.121094 44.054688 C 23.183594 44.054688 23.246094 44.070312 23.304688 44.101562 L 26.308594 45.765625 C 26.417969 45.824219 26.484375 45.9375 26.484375 46.0625 L 26.484375 51.96875 C 26.484375 52.199219 26.605469 52.414062 26.804688 52.53125 L 30.03125 54.402344 C 30.132812 54.460938 30.257812 54.460938 30.355469 54.402344 C 30.457031 54.34375 30.519531 54.238281 30.519531 54.121094 L 30.519531 44.085938 C 30.519531 43.800781 30.363281 43.542969 30.117188 43.40625 Z M 30.117188 43.40625 "/>
</g>
</svg>
