<svg viewBox="0 0 314.5366 190.1609" width="5000px" height="3022.8741206599375px" xmlns="http://www.w3.org/2000/svg" xmlns:xlink="http://www.w3.org/1999/xlink" preserveAspectRatio="none"><defs></defs><style>.a6izo4zJpcolor {fill:#F1F1F1;fill-opacity:1;}.aD6z1nYkhcolor {fill:#F1F1F1;fill-opacity:1;}.icon1 {fill:#F1F1F1;fill-opacity:1;}.icon2 {fill:#B8020D;fill-opacity:1;}.icon3 {fill:#222222;fill-opacity:1;}</style><g opacity="1" transform="rotate(0 0 166.93510000000003)">
<svg width="314.5366" height="23.2258" x="0" y="166.93510000000003" version="1.1" preserveAspectRatio="none" viewBox="3.56 -28.4 390.23999999999995 28.8">
  <g transform="matrix(1 0 0 1 0 0)" class="a6izo4zJpcolor"><path d="M6.36 0L3.56 0L3.56-28.40L22.20-28.40L22.20-25.92L6.36-25.92L6.36-15.48L19.72-15.48L19.72-13.16L6.36-13.16L6.36 0Z M37-20.92L37-18.44Q34.24-18.36 32.20-16.92Q30.16-15.48 29.32-12.96L29.32-12.96L29.32 0L26.60 0L26.60-20.84L29.16-20.84L29.16-15.84Q30.32-18.24 32.28-19.60Q34.24-20.96 36.48-20.96L36.48-20.96Q36.80-20.96 37-20.92L37-20.92Z M47.20 0.40L47.20 0.40Q45.72 0.40 44.46-0.10Q43.20-0.60 42.26-1.48Q41.32-2.36 40.80-3.54Q40.28-4.72 40.28-6.08L40.28-6.08Q40.28-7.44 40.92-8.60Q41.56-9.76 42.72-10.60Q43.88-11.44 45.48-11.90Q47.08-12.36 49-12.36L49-12.36Q50.60-12.36 52.24-12.08Q53.88-11.80 55.16-11.28L55.16-11.28L55.16-13.16Q55.16-15.92 53.60-17.54Q52.04-19.16 49.28-19.16L49.28-19.16Q47.68-19.16 46-18.52Q44.32-17.88 42.60-16.68L42.60-16.68L41.64-18.48Q45.68-21.20 49.48-21.20L49.48-21.20Q53.40-21.20 55.64-19Q57.88-16.80 57.88-12.92L57.88-12.92L57.88-3.52Q57.88-2.40 58.88-2.40L58.88-2.40L58.88 0Q58.20 0.12 57.84 0.12L57.84 0.12Q56.80 0.12 56.22-0.40Q55.64-0.92 55.60-1.84L55.60-1.84L55.52-3.48Q54.08-1.60 51.90-0.60Q49.72 0.40 47.20 0.40ZM47.84-1.68L47.84-1.68Q49.96-1.68 51.74-2.48Q53.52-3.28 54.44-4.60L54.44-4.60Q54.80-4.96 54.98-5.38Q55.16-5.80 55.16-6.16L55.16-6.16L55.16-9.56Q53.80-10.08 52.34-10.36Q50.88-10.64 49.36-10.64L49.36-10.64Q46.48-10.64 44.68-9.44Q42.88-8.24 42.88-6.28L42.88-6.28Q42.88-5.32 43.26-4.48Q43.64-3.64 44.30-3.02Q44.96-2.40 45.88-2.04Q46.80-1.68 47.84-1.68Z M82.88-12.20L82.88 0L80.16 0L80.16-11.64Q80.16-15.36 79.06-17.04Q77.96-18.72 75.68-18.72L75.68-18.72Q74.48-18.72 73.28-18.28Q72.08-17.84 71.06-17.04Q70.04-16.24 69.24-15.14Q68.44-14.04 68.08-12.76L68.08-12.76L68.08 0L65.36 0L65.36-20.84L67.84-20.84L67.84-16.12Q69.12-18.40 71.50-19.80Q73.88-21.20 76.68-21.20L76.68-21.20Q78.40-21.20 79.60-20.56Q80.80-19.92 81.52-18.76Q82.24-17.60 82.56-15.92Q82.88-14.24 82.88-12.20L82.88-12.20Z M88.84-10.48L88.84-10.48Q88.84-12.68 89.60-14.64Q90.36-16.60 91.74-18.06Q93.12-19.52 95.04-20.36Q96.96-21.20 99.28-21.20L99.28-21.20Q102.24-21.20 104.44-19.86Q106.64-18.52 107.76-16.24L107.76-16.24L105.12-15.40Q104.24-17 102.66-17.90Q101.08-18.80 99.16-18.80L99.16-18.80Q97.56-18.80 96.18-18.16Q94.80-17.52 93.78-16.42Q92.76-15.32 92.18-13.80Q91.60-12.28 91.60-10.48L91.60-10.48Q91.60-8.72 92.20-7.16Q92.80-5.60 93.84-4.46Q94.88-3.32 96.26-2.66Q97.64-2 99.20-2L99.20-2Q100.20-2 101.18-2.28Q102.16-2.56 103-3.06Q103.84-3.56 104.44-4.20Q105.04-4.84 105.28-5.56L105.28-5.56L107.96-4.76Q107.52-3.64 106.68-2.70Q105.84-1.76 104.70-1.06Q103.56-0.36 102.18 0.02Q100.80 0.40 99.32 0.40L99.32 0.40Q97.04 0.40 95.12-0.46Q93.20-1.32 91.80-2.82Q90.40-4.32 89.62-6.28Q88.84-8.24 88.84-10.48Z M122.64 0.40L122.64 0.40Q120.36 0.40 118.46-0.46Q116.56-1.32 115.16-2.82Q113.76-4.32 112.98-6.28Q112.20-8.24 112.20-10.48L112.20-10.48Q112.20-12.68 112.98-14.62Q113.76-16.56 115.14-18.02Q116.52-19.48 118.44-20.34Q120.36-21.20 122.60-21.20L122.60-21.20Q124.88-21.20 126.78-20.34Q128.68-19.48 130.04-18Q131.40-16.52 132.16-14.60Q132.92-12.68 132.92-10.52L132.92-10.52Q132.92-10.20 132.92-9.88Q132.92-9.56 132.88-9.44L132.88-9.44L115.04-9.44Q115.16-7.76 115.82-6.34Q116.48-4.92 117.52-3.88Q118.56-2.84 119.90-2.26Q121.24-1.68 122.76-1.68L122.76-1.68Q123.76-1.68 124.76-1.96Q125.76-2.24 126.60-2.72Q127.44-3.20 128.12-3.90Q128.80-4.60 129.16-5.44L129.16-5.44L131.52-4.80Q131.04-3.64 130.16-2.70Q129.28-1.76 128.12-1.06Q126.96-0.36 125.56 0.02Q124.16 0.40 122.64 0.40ZM115-11.52L130.32-11.52Q130.20-13.20 129.54-14.58Q128.88-15.96 127.86-16.96Q126.84-17.96 125.50-18.52Q124.16-19.08 122.64-19.08L122.64-19.08Q121.12-19.08 119.76-18.52Q118.40-17.96 117.38-16.96Q116.36-15.96 115.74-14.56Q115.12-13.16 115-11.52L115-11.52Z M145.64 0.40L145.64 0.40Q143.20 0.40 140.88-0.40Q138.56-1.20 136.88-2.72L136.88-2.72L138.12-4.56Q139.88-3.12 141.70-2.40Q143.52-1.68 145.60-1.68L145.60-1.68Q148.12-1.68 149.62-2.70Q151.12-3.72 151.12-5.60L151.12-5.60Q151.12-6.48 150.72-7.06Q150.32-7.64 149.54-8.08Q148.76-8.52 147.58-8.86Q146.40-9.20 144.84-9.56L144.84-9.56Q143.04-10 141.72-10.44Q140.40-10.88 139.54-11.44Q138.68-12 138.26-12.82Q137.84-13.64 137.84-14.88L137.84-14.88Q137.84-16.44 138.46-17.64Q139.08-18.84 140.14-19.62Q141.20-20.40 142.62-20.80Q144.04-21.20 145.64-21.20L145.64-21.20Q148.04-21.20 150-20.42Q151.96-19.64 153.16-18.36L153.16-18.36L151.84-16.76Q150.68-17.96 149.02-18.56Q147.36-19.16 145.56-19.16L145.56-19.16Q144.48-19.16 143.56-18.94Q142.64-18.72 141.94-18.24Q141.24-17.76 140.84-17.02Q140.44-16.28 140.44-15.28L140.44-15.28Q140.44-14.44 140.72-13.92Q141-13.40 141.64-13.02Q142.28-12.64 143.26-12.34Q144.24-12.04 145.64-11.72L145.64-11.72Q147.64-11.24 149.16-10.76Q150.68-10.28 151.70-9.64Q152.72-9 153.24-8.08Q153.76-7.16 153.76-5.84L153.76-5.84Q153.76-2.96 151.56-1.28Q149.36 0.40 145.64 0.40Z M158.36-10.48L158.36-10.48Q158.36-12.68 159.12-14.64Q159.88-16.60 161.26-18.06Q162.64-19.52 164.56-20.36Q166.48-21.20 168.80-21.20L168.80-21.20Q171.76-21.20 173.96-19.86Q176.16-18.52 177.28-16.24L177.28-16.24L174.64-15.40Q173.76-17 172.18-17.90Q170.60-18.80 168.68-18.80L168.68-18.80Q167.08-18.80 165.70-18.16Q164.32-17.52 163.30-16.42Q162.28-15.32 161.70-13.80Q161.12-12.28 161.12-10.48L161.12-10.48Q161.12-8.72 161.72-7.16Q162.32-5.60 163.36-4.46Q164.40-3.32 165.78-2.66Q167.16-2 168.72-2L168.72-2Q169.72-2 170.70-2.28Q171.68-2.56 172.52-3.06Q173.36-3.56 173.96-4.20Q174.56-4.84 174.80-5.56L174.80-5.56L177.48-4.76Q177.04-3.64 176.20-2.70Q175.36-1.76 174.22-1.06Q173.08-0.36 171.70 0.02Q170.32 0.40 168.84 0.40L168.84 0.40Q166.56 0.40 164.64-0.46Q162.72-1.32 161.32-2.82Q159.92-4.32 159.14-6.28Q158.36-8.24 158.36-10.48Z M192.04 0.40L192.04 0.40Q189.76 0.40 187.88-0.46Q186-1.32 184.62-2.80Q183.24-4.28 182.48-6.24Q181.72-8.20 181.72-10.36L181.72-10.36Q181.72-12.56 182.50-14.52Q183.28-16.48 184.66-17.96Q186.04-19.44 187.92-20.32Q189.80-21.20 192.04-21.20L192.04-21.20Q194.28-21.20 196.18-20.32Q198.08-19.44 199.46-17.96Q200.84-16.48 201.62-14.52Q202.40-12.56 202.40-10.36L202.40-10.36Q202.40-8.20 201.64-6.24Q200.88-4.28 199.50-2.80Q198.12-1.32 196.22-0.46Q194.32 0.40 192.04 0.40ZM184.48-10.32L184.48-10.32Q184.48-8.56 185.08-7.06Q185.68-5.56 186.70-4.42Q187.72-3.28 189.10-2.64Q190.48-2 192.04-2L192.04-2Q193.60-2 194.98-2.66Q196.36-3.32 197.40-4.46Q198.44-5.60 199.04-7.12Q199.64-8.64 199.64-10.40L199.64-10.40Q199.64-12.12 199.04-13.66Q198.44-15.20 197.40-16.34Q196.36-17.48 194.98-18.14Q193.60-18.80 192.04-18.80L192.04-18.80Q190.48-18.80 189.12-18.14Q187.76-17.48 186.72-16.32Q185.68-15.16 185.08-13.62Q184.48-12.08 184.48-10.32Z M223.72 0L220.92 0L220.92-28.40L239.56-28.40L239.56-25.92L223.72-25.92L223.72-15.48L237.08-15.48L237.08-13.16L223.72-13.16L223.72 0Z M254.36-20.92L254.36-18.44Q251.60-18.36 249.56-16.92Q247.52-15.48 246.68-12.96L246.68-12.96L246.68 0L243.96 0L243.96-20.84L246.52-20.84L246.52-15.84Q247.68-18.24 249.64-19.60Q251.60-20.96 253.84-20.96L253.84-20.96Q254.16-20.96 254.36-20.92L254.36-20.92Z M264.56 0.40L264.56 0.40Q263.08 0.40 261.82-0.10Q260.56-0.60 259.62-1.48Q258.68-2.36 258.16-3.54Q257.64-4.72 257.64-6.08L257.64-6.08Q257.64-7.44 258.28-8.60Q258.92-9.76 260.08-10.60Q261.24-11.44 262.84-11.90Q264.44-12.36 266.36-12.36L266.36-12.36Q267.96-12.36 269.60-12.08Q271.24-11.80 272.52-11.28L272.52-11.28L272.52-13.16Q272.52-15.92 270.96-17.54Q269.40-19.16 266.64-19.16L266.64-19.16Q265.04-19.16 263.36-18.52Q261.68-17.88 259.96-16.68L259.96-16.68L259-18.48Q263.04-21.20 266.84-21.20L266.84-21.20Q270.76-21.20 273-19Q275.24-16.80 275.24-12.92L275.24-12.92L275.24-3.52Q275.24-2.40 276.24-2.40L276.24-2.40L276.24 0Q275.56 0.12 275.20 0.12L275.20 0.12Q274.16 0.12 273.58-0.40Q273-0.92 272.96-1.84L272.96-1.84L272.88-3.48Q271.44-1.60 269.26-0.60Q267.08 0.40 264.56 0.40ZM265.20-1.68L265.20-1.68Q267.32-1.68 269.10-2.48Q270.88-3.28 271.80-4.60L271.80-4.60Q272.16-4.96 272.34-5.38Q272.52-5.80 272.52-6.16L272.52-6.16L272.52-9.56Q271.16-10.08 269.70-10.36Q268.24-10.64 266.72-10.64L266.72-10.64Q263.84-10.64 262.04-9.44Q260.24-8.24 260.24-6.28L260.24-6.28Q260.24-5.32 260.62-4.48Q261-3.64 261.66-3.02Q262.32-2.40 263.24-2.04Q264.16-1.68 265.20-1.68Z M300.24-12.20L300.24 0L297.52 0L297.52-11.64Q297.52-15.36 296.42-17.04Q295.32-18.72 293.04-18.72L293.04-18.72Q291.84-18.72 290.64-18.28Q289.44-17.84 288.42-17.04Q287.40-16.24 286.60-15.14Q285.80-14.04 285.44-12.76L285.44-12.76L285.44 0L282.72 0L282.72-20.84L285.20-20.84L285.20-16.12Q286.48-18.40 288.86-19.80Q291.24-21.20 294.04-21.20L294.04-21.20Q295.76-21.20 296.96-20.56Q298.16-19.92 298.88-18.76Q299.60-17.60 299.92-15.92Q300.24-14.24 300.24-12.20L300.24-12.20Z M305.88 0L305.88-1.84L319.96-18.80L306.20-18.80L306.20-20.84L322.92-20.84L322.92-19L308.88-2.04L322.88-2.04L322.88 0L305.88 0Z M337.36 0.40L337.36 0.40Q335.08 0.40 333.18-0.46Q331.28-1.32 329.88-2.82Q328.48-4.32 327.70-6.28Q326.92-8.24 326.92-10.48L326.92-10.48Q326.92-12.68 327.70-14.62Q328.48-16.56 329.86-18.02Q331.24-19.48 333.16-20.34Q335.08-21.20 337.32-21.20L337.32-21.20Q339.60-21.20 341.50-20.34Q343.40-19.48 344.76-18Q346.12-16.52 346.88-14.60Q347.64-12.68 347.64-10.52L347.64-10.52Q347.64-10.20 347.64-9.88Q347.64-9.56 347.60-9.44L347.60-9.44L329.76-9.44Q329.88-7.76 330.54-6.34Q331.20-4.92 332.24-3.88Q333.28-2.84 334.62-2.26Q335.96-1.68 337.48-1.68L337.48-1.68Q338.48-1.68 339.48-1.96Q340.48-2.24 341.32-2.72Q342.16-3.20 342.84-3.90Q343.52-4.60 343.88-5.44L343.88-5.44L346.24-4.80Q345.76-3.64 344.88-2.70Q344.00-1.76 342.84-1.06Q341.68-0.36 340.28 0.02Q338.88 0.40 337.36 0.40ZM329.72-11.52L345.04-11.52Q344.92-13.20 344.26-14.58Q343.60-15.96 342.58-16.96Q341.56-17.96 340.22-18.52Q338.88-19.08 337.36-19.08L337.36-19.08Q335.84-19.08 334.48-18.52Q333.12-17.96 332.10-16.96Q331.08-15.96 330.46-14.56Q329.84-13.16 329.72-11.52L329.72-11.52Z M360.36 0.40L360.36 0.40Q357.92 0.40 355.60-0.40Q353.28-1.20 351.60-2.72L351.60-2.72L352.84-4.56Q354.60-3.12 356.42-2.40Q358.24-1.68 360.32-1.68L360.32-1.68Q362.84-1.68 364.34-2.70Q365.84-3.72 365.84-5.60L365.84-5.60Q365.84-6.48 365.44-7.06Q365.04-7.64 364.26-8.08Q363.48-8.52 362.30-8.86Q361.12-9.20 359.56-9.56L359.56-9.56Q357.76-10 356.44-10.44Q355.12-10.88 354.26-11.44Q353.40-12 352.98-12.82Q352.56-13.64 352.56-14.88L352.56-14.88Q352.56-16.44 353.18-17.64Q353.80-18.84 354.86-19.62Q355.92-20.40 357.34-20.80Q358.76-21.20 360.36-21.20L360.36-21.20Q362.76-21.20 364.72-20.42Q366.68-19.64 367.88-18.36L367.88-18.36L366.56-16.76Q365.40-17.96 363.74-18.56Q362.08-19.16 360.28-19.16L360.28-19.16Q359.20-19.16 358.28-18.94Q357.36-18.72 356.66-18.24Q355.96-17.76 355.56-17.02Q355.16-16.28 355.16-15.28L355.16-15.28Q355.16-14.44 355.44-13.92Q355.72-13.40 356.36-13.02Q357.00-12.64 357.98-12.34Q358.96-12.04 360.36-11.72L360.36-11.72Q362.36-11.24 363.88-10.76Q365.40-10.28 366.42-9.64Q367.44-9 367.96-8.08Q368.48-7.16 368.48-5.84L368.48-5.84Q368.48-2.96 366.28-1.28Q364.08 0.40 360.36 0.40Z M383.52 0.40L383.52 0.40Q381.24 0.40 379.34-0.46Q377.44-1.32 376.04-2.82Q374.64-4.32 373.86-6.28Q373.08-8.24 373.08-10.48L373.08-10.48Q373.08-12.68 373.86-14.62Q374.64-16.56 376.02-18.02Q377.40-19.48 379.32-20.34Q381.24-21.20 383.48-21.20L383.48-21.20Q385.76-21.20 387.66-20.34Q389.56-19.48 390.92-18Q392.28-16.52 393.04-14.60Q393.80-12.68 393.80-10.52L393.80-10.52Q393.80-10.20 393.80-9.88Q393.80-9.56 393.76-9.44L393.76-9.44L375.92-9.44Q376.04-7.76 376.70-6.34Q377.36-4.92 378.40-3.88Q379.44-2.84 380.78-2.26Q382.12-1.68 383.64-1.68L383.64-1.68Q384.64-1.68 385.64-1.96Q386.64-2.24 387.48-2.72Q388.32-3.20 389.00-3.90Q389.68-4.60 390.04-5.44L390.04-5.44L392.40-4.80Q391.92-3.64 391.04-2.70Q390.16-1.76 389.00-1.06Q387.84-0.36 386.44 0.02Q385.04 0.40 383.52 0.40ZM375.88-11.52L391.20-11.52Q391.08-13.20 390.42-14.58Q389.76-15.96 388.74-16.96Q387.72-17.96 386.38-18.52Q385.04-19.08 383.52-19.08L383.52-19.08Q382.00-19.08 380.64-18.52Q379.28-17.96 378.26-16.96Q377.24-15.96 376.62-14.56Q376.00-13.16 375.88-11.52L375.88-11.52Z"></path></g>
</svg>
</g><g opacity="1" transform="rotate(0 14.499599999999987 0)">
<svg width="125.5373" height="145.161" x="14.499599999999987" y="0" version="1.1" preserveAspectRatio="none" viewBox="7.0313 -29.4727 35.8593 41.4649">
  <g transform="matrix(1 0 0 1 0 0)" class="aD6z1nYkhcolor"><path d="M8.50-10.92L7.58-10.68Q7.03-10.68 7.03-11.37L7.03-11.37Q7.03-11.88 7.49-12.48Q7.95-13.09 8.05-13.28Q8.14-13.48 8.56-13.89Q8.98-14.30 9.31-14.38Q9.63-14.45 10.63-14.55L10.63-14.55Q13.67-14.84 17.27-14.88L17.27-14.88Q21.17-20.80 23.63-23.67L23.63-23.67Q19.98-23.01 14.67-23.01L14.67-23.01Q7.46-23.01 7.46-26.23L7.46-26.23Q7.46-27.15 8.39-27.83Q9.32-28.52 10.73-28.52Q12.15-28.52 12.15-28.18L12.15-28.18Q12.15-28.01 11.71-28.01Q11.27-28.01 10.89-27.69Q10.51-27.36 10.51-27.07L10.51-27.07Q10.51-26.62 12.42-26.41Q14.34-26.19 18.33-26.19Q22.32-26.19 26.99-26.91L26.99-26.91Q28.54-28.18 29.89-28.83Q31.25-29.47 32.66-29.47Q34.06-29.47 34.49-28.85Q34.92-28.22 34.93-27.91Q34.94-27.60 34.47-27.09Q34.00-26.58 33.16-26.05L33.16-26.05Q31.19-24.84 27.99-24.61L27.99-24.61Q24.57-20.29 20.94-14.84L20.94-14.84Q22.44-14.79 23.75-14.62Q25.06-14.45 25.06-13.59L25.06-13.59Q25.06-13.24 23.95-12.25L23.95-12.25Q23.83-12.11 23.65-11.84L23.65-11.84Q23.34-11.37 23.04-11.37Q22.73-11.37 22.34-11.45L22.34-11.45Q20.82-11.50 20.06-11.50L20.06-11.50L18.79-11.48Q11.91-0.78 11.69-0.36Q11.46 0.06 11.20 0.27Q10.94 0.49 10.55 0.49Q10.16 0.49 9.45 0.36Q8.75 0.23 8.40 0.05Q8.05-0.14 8.05-0.42Q8.05-0.70 8.22-1.23L8.22-1.23Q8.69-2.54 14.79-11.33L14.79-11.33Q10.82-11.13 8.50-10.92L8.50-10.92ZM31.62-28.01L32.38-28.32Q32.07-28.22 31.62-28.01L31.62-28.01Z M23.34-6.29L23.34-6.29L23.18-6.84Q23.18-6.99 23.34-7.10Q23.50-7.21 23.74-7.54Q23.98-7.87 24.09-7.97Q24.20-8.07 24.40-8.25Q24.61-8.44 24.75-8.55L24.75-8.55Q25.14-8.89 25.29-8.94Q25.45-8.98 25.84-9.10L25.84-9.10Q27.05-9.49 27.89-9.65L27.89-9.65Q32.87-17.97 35.89-22.67Q38.91-27.36 39.33-27.86Q39.75-28.36 40.82-28.75Q41.89-29.14 42.39-29.13Q42.89-29.12 42.89-28.69L42.89-28.69Q42.89-28.52 42.76-28.22Q42.64-27.93 40.63-24.77L40.63-24.77Q33.18-13.11 31.09-9.65L31.09-9.65L31.58-9.47Q36.11-10.31 36.30-10.31Q36.48-10.31 37.24-10.05Q37.99-9.79 38.22-9.75L38.22-9.75Q38.67-9.67 38.67-9.01Q38.67-8.36 38.26-8.28L38.26-8.28Q37.93-8.22 36.67-7.90Q35.41-7.58 34.65-7.40L34.65-7.40Q35.68-6.17 35.68-4.79Q35.68-3.40 34.45-1.12Q33.22 1.15 31.31 3.38Q29.39 5.61 27.29 7.58Q25.20 9.55 23.26 10.77Q21.33 11.99 20.40 11.99Q19.47 11.99 18.74 11.49Q18.01 11.00 18.01 10.02Q18.01 9.04 18.41 7.74Q18.81 6.45 19.28 5.36Q19.75 4.28 20.88 2.25L20.88 2.25Q22.09 0.06 25.25-5.23L25.25-5.23Q24.71-5.14 24.41-5.14Q24.12-5.14 23.87-5.27Q23.61-5.41 23.52-5.63L23.52-5.63Q23.34-6.02 23.34-6.29ZM28.84 2.13Q30.29 0.43 31.29-1.44Q32.29-3.30 32.29-4.48Q32.29-5.66 31.13-6.56L31.13-6.56L28.96-6.07Q28.63-5.53 27.94-4.35Q27.25-3.16 26.81-2.42Q26.37-1.68 25.68-0.51Q25 0.66 24.54 1.46Q24.08 2.27 23.53 3.27Q22.97 4.28 22.61 4.99Q22.25 5.70 21.91 6.41L21.91 6.41Q21.27 7.77 21.27 8.18Q21.27 8.59 21.48 8.59L21.48 8.59Q21.88 8.59 23.10 7.71Q24.32 6.82 25.85 5.32Q27.38 3.83 28.84 2.13Z"></path></g>
</svg>
</g><g opacity="1" transform="rotate(0 153.4996 29.501000000000005)">
<svg width="125.5373" height="86.159" x="153.4996" y="29.501000000000005" version="1.1" preserveAspectRatio="none" viewBox="21.693511962890625 48.548038482666016 157.3094940185547 107.96501159667967">
  <g transform="matrix(1 0 0 -1 0 205.06108856201172)"><g><path d="M178.779 83.204a5.094 5.094 0 0 1-.776 1.44 6.377 6.377 0 0 1-.383.459c-.552.603-1.27 1.168-2.153 1.674l-67.342 39.191c-2.351 1.348-5.452 2.021-8.553 2.021-3.101 0-6.204-.674-8.56-2.021l-27.263-15.597-8.225-4.705a10.23 10.23 0 0 1-.828-.525 8.116 8.116 0 0 1-1.325-1.149 5.795 5.795 0 0 1-.883-1.249 4.461 4.461 0 0 1-.442-1.309c-.025-.148-.029-.298-.037-.446l-.018.01v13.037c0 1.774 1.178 3.548 3.534 4.896l.214.122 35.275 20.18c2.356 1.348 5.459 2.021 8.56 2.021 3.101 0 6.202-.674 8.553-2.021l67.342-39.191c2.356-1.348 3.534-3.122 3.534-4.896V81.88a4.23 4.23 0 0 1-.224 1.324z" data-color="1" class="icon1"></path><path d="M124.317 82.025c1.464-.839 3.396-1.259 5.328-1.259 1.932 0 3.864.42 5.329 1.259l14.432 8.256 7.667-4.422c2.934-1.678 2.934-4.421 0-6.094l-22.1-12.642c-1.464-.839-3.396-1.259-5.329-1.259-1.932 0-3.864.42-5.328 1.259l-1.63.94-4.346 2.507-.139 14.982 5.386-3.106.73-.421z" data-color="1" class="icon1"></path><path d="M74.823 101.761l3.775 2.16 3.408 1.95.484.277 6.907-3.983c1.016-.837 1.931-1.948 2.648-3.176.975-1.668 1.588-3.548 1.602-5.235l.084-8.99-18.908 10.904c-2.934 1.673-2.934 4.415 0 6.093z" data-color="1" class="icon1"></path><path d="M175.466 76.99l-35.489-20.302c-2.351-1.348-5.454-2.021-8.557-2.021-3.102 0-6.205.674-8.557 2.021l-.883.514-3.728 2.17c.119.597.181 1.25.173 1.962l-.086 9.236 4.346-2.507 1.63-.94c1.464-.839 3.396-1.259 5.328-1.259 1.932 0 3.864.42 5.329 1.259l22.1 12.642c2.934 1.673 2.934 4.415 0 6.094l-7.667 4.422-24.769 14.285-8.552 4.933c-.063.124-.129.245-.195.368-2.699 1.536-5.132 2.897-5.761 3.26-1.549.893-6.124 3.533-9.758 2.765-.908-.192-2.704-1.034-4.889-2.191-4.033-2.135-9.386-5.336-12.918-7.49l.019-.011-.092-.053-.484-.277-3.408-1.95-3.775-2.16c-2.934-1.678-2.934-4.421 0-6.094l18.908-10.905.071-7.636-41.795 23.861c.008.149.013.298.037.446.074.442.221.88.442 1.309.221.429.515.847.883 1.249.368.402.81.787 1.325 1.149.258.181.534.356.828.525l8.225 4.705 27.263 15.597c2.356 1.348 5.459 2.021 8.56 2.021 3.101 0 6.202-.674 8.553-2.021l67.342-39.191c.884-.505 1.601-1.071 2.153-1.674.138-.151.266-.304.383-.459.352-.465.611-.948.776-1.44.147-.437.221-.88.221-1.324.002-1.772-1.176-3.545-3.532-4.888z" data-color="2" class="icon2"></path><path d="M118.253 59.372c-.333-1.679-1.135-2.896-2.265-3.556l-11.453-6.694c-1.531-.895-3.658-.774-6.01.58L30.709 88.066c-2.35 1.35-4.496 3.687-6.061 6.364s-2.549 5.696-2.574 8.41l-.38 40.884c-.025 2.714.913 4.626 2.444 5.521l11.453 6.694c1.531.895 3.656.772 6.004-.584l38.953-22.036-9.733-5.537-13.041-7.419-11.436 6.529.154-16.626c.016-1.69.628-3.57 1.603-5.237.975-1.667 2.311-3.123 3.774-3.963l.119-.068.018-.01 41.795-23.861-.071 7.636-.084 8.99c-.014 1.688-.627 3.567-1.602 5.235-.718 1.228-1.632 2.339-2.648 3.176-.364.3-.741.567-1.127.789l-5.688 3.247-.019.011c3.532 2.154 8.885 5.355 12.918 7.49 2.185 1.156 3.981 1.999 4.889 2.191 3.634.768 8.21-1.872 9.758-2.765.629-.363 3.062-1.723 5.761-3.26.065-.123.132-.244.195-.368 1.205-2.38 1.942-4.945 1.962-7.281l.155-16.666.139-14.982.086-9.236a9.48 9.48 0 0 0-.172-1.962zm-5.744-3.991z" data-color="3" class="icon3"></path><path d="M118.253 59.372c-.333-1.679-1.135-2.896-2.265-3.556a4.115 4.115 0 0 0-1.255-.477 4.6 4.6 0 0 0-.521-.077 5.644 5.644 0 0 0-1.703.12c-.799.172-1.649.507-2.532 1.015L42.161 94.76c-2.35 1.35-4.496 3.687-6.061 6.364-1.565 2.678-2.549 5.696-2.574 8.41l-.38 40.884a9.737 9.737 0 0 0 .156 1.882c.108.575.271 1.096.482 1.561.423.929 1.04 1.631 1.806 2.079 1.531.895 3.656.772 6.004-.584l38.953-22.036-9.733-5.537L51.517 138.8c-2.925 1.689-5.292.305-5.261-3.075l.082-8.833.154-16.626c.016-1.69.628-3.57 1.603-5.237.975-1.667 2.311-3.123 3.774-3.963l.119-.068.018-.01 41.795-23.861 7.687-4.388c2.929-1.686 5.297-.302 5.261 3.075l-.014 1.449-.139 14.982-.084 9.028c-.014 1.688-.627 3.567-1.602 5.235s-2.312 3.124-3.775 3.965l-5.548 3.167-.106.06c2.185 1.156 3.981 1.999 4.889 2.191 3.634.768 8.21-1.872 9.758-2.765.629-.363 3.062-1.723 5.761-3.26.065-.123.132-.244.195-.368 1.205-2.38 1.942-4.945 1.962-7.281l.155-16.666.139-14.982.086-9.236a9.542 9.542 0 0 0-.173-1.961z" opacity=".4"></path></g></g>
</svg>
</g></svg>