<?xml version="1.0" encoding="UTF-8"?>
<svg xmlns="http://www.w3.org/2000/svg" xmlns:xlink="http://www.w3.org/1999/xlink" width="96pt" height="96pt" viewBox="0 0 96 96" version="1.1">
<g id="surface6517735">
<path style=" stroke:none;fill-rule:nonzero;fill:rgb(10.980392%,82.745099%,10.980392%);fill-opacity:1;" d="M 48 96 C 21.492188 96 0 74.507812 0 48 C 0 21.492188 21.492188 0 48 0 C 74.507812 0 96 21.492188 96 48 C 96 74.507812 74.507812 96 48 96 Z M 48 96 "/>
<path style=" stroke:none;fill-rule:nonzero;fill:rgb(36.470589%,25.098041%,21.568628%);fill-opacity:1;" d="M 78.601562 36.609375 C 78.601562 71.460938 48 82 48 82 C 48 82 17.398438 71.460938 17.398438 36.609375 C 17.398438 32.359375 17.738281 28.789062 18.078125 25.898438 C 18.589844 21.648438 21.480469 18.25 25.558594 17.230469 C 30.828125 15.699219 39.160156 14 48 14 C 56.839844 14 65.171875 15.699219 70.609375 17.230469 C 74.691406 18.25 77.578125 21.820312 78.089844 25.898438 C 78.261719 28.789062 78.601562 32.53125 78.601562 36.609375 Z M 78.601562 36.609375 "/>
<path style=" stroke:none;fill-rule:nonzero;fill:rgb(29.803923%,68.627453%,31.37255%);fill-opacity:1;" d="M 48 19.101562 C 56.328125 19.101562 64.148438 20.800781 69.25 22.160156 C 71.289062 22.671875 72.648438 24.371094 72.988281 26.578125 C 73.328125 29.808594 73.5 33.210938 73.5 36.609375 C 73.5 63.128906 53.949219 73.839844 48 76.390625 C 42.050781 73.671875 22.5 62.960938 22.5 36.609375 C 22.5 33.210938 22.671875 29.808594 23.011719 26.578125 C 23.179688 24.371094 24.710938 22.671875 26.75 22.160156 C 31.851562 20.800781 39.671875 19.101562 48 19.101562 M 48 14 C 39.160156 14 30.828125 15.699219 25.390625 17.230469 C 21.480469 18.25 18.421875 21.820312 18.078125 25.898438 C 17.738281 28.789062 17.398438 32.53125 17.398438 36.609375 C 17.398438 71.460938 48 82 48 82 C 48 82 78.601562 71.460938 78.601562 36.609375 C 78.601562 32.359375 78.261719 28.789062 77.921875 25.898438 C 77.410156 21.648438 74.519531 18.25 70.441406 17.230469 C 65.171875 15.699219 56.839844 14 48 14 Z M 48 14 "/>
<path style=" stroke:none;fill-rule:nonzero;fill:rgb(86.274511%,92.941177%,78.431374%);fill-opacity:1;" d="M 46.300781 54.800781 L 49.699219 54.800781 L 49.699219 68.398438 L 46.300781 68.398438 Z M 46.300781 54.800781 "/>
<path style=" stroke:none;fill-rule:nonzero;fill:rgb(29.803923%,68.627453%,31.37255%);fill-opacity:1;" d="M 48 24.199219 C 48 24.199219 37.800781 32.699219 37.800781 46.300781 C 37.800781 55.140625 43.410156 60.75 46.300781 63.300781 L 48 58.199219 L 49.699219 63.300781 C 52.589844 60.75 58.199219 55.140625 58.199219 46.300781 C 58.199219 32.699219 48 24.199219 48 24.199219 Z M 48 24.199219 "/>
<path style=" stroke:none;fill-rule:nonzero;fill:rgb(50.588238%,78.039217%,51.764709%);fill-opacity:1;" d="M 48 24.199219 C 48 24.199219 37.800781 32.699219 37.800781 46.300781 C 37.800781 55.140625 43.410156 60.75 46.300781 63.300781 L 48 58.199219 Z M 48 24.199219 "/>
</g>
</svg>
