<?xml version="1.0" encoding="UTF-8"?>
<svg xmlns="http://www.w3.org/2000/svg" xmlns:xlink="http://www.w3.org/1999/xlink" width="96pt" height="96pt" viewBox="0 0 96 96" version="1.1">
<g id="surface6459356">
<path style=" stroke:none;fill-rule:nonzero;fill:rgb(80.000001%,80.000001%,80.000001%);fill-opacity:1;" d="M 48 96 C 21.492188 96 0 74.507812 0 48 C 0 21.492188 21.492188 0 48 0 C 74.507812 0 96 21.492188 96 48 C 96 74.507812 74.507812 96 48 96 Z M 48 96 "/>
<path style=" stroke:none;fill-rule:nonzero;fill:rgb(90.196079%,31.764707%,0%);fill-opacity:1;" d="M 75.199219 17.601562 L 20.800781 17.601562 L 25.601562 72 L 48 78.398438 L 70.398438 72 Z M 75.199219 17.601562 "/>
<path style=" stroke:none;fill-rule:nonzero;fill:rgb(100%,42.745098%,0%);fill-opacity:1;" d="M 48 22.398438 L 48 73.441406 L 65.921875 68.320312 L 69.921875 22.398438 Z M 48 22.398438 "/>
<path style=" stroke:none;fill-rule:nonzero;fill:rgb(100%,100%,100%);fill-opacity:1;" d="M 48 49.601562 L 48 43.199219 L 61.761719 43.199219 L 60.640625 61.601562 L 48 65.761719 L 48 59.039062 L 54.558594 56.800781 L 55.039062 49.601562 Z M 62.238281 36.800781 L 62.71875 30.398438 L 48 30.398438 L 48 36.800781 Z M 62.238281 36.800781 "/>
<path style=" stroke:none;fill-rule:nonzero;fill:rgb(93.333334%,93.333334%,93.333334%);fill-opacity:1;" d="M 48 59.039062 L 48 65.761719 L 35.359375 61.601562 L 34.71875 52.800781 L 41.121094 52.800781 L 41.441406 56.800781 Z M 40.160156 36.800781 L 48 36.800781 L 48 30.398438 L 33.441406 30.398438 L 34.558594 49.601562 L 48 49.601562 L 48 43.199219 L 40.640625 43.199219 Z M 40.160156 36.800781 "/>
</g>
</svg>
